<svg width="40" height="40" viewBox="0 0 40 40" fill="none" xmlns="http://www.w3.org/2000/svg">
<rect width="40" height="40" rx="20" fill="#FFF8EC"/>
<path d="M23.8775 25.036C23.0639 25.5674 22.0921 25.8764 21.0466 25.8764C20.2312 25.8764 19.4612 25.6885 18.7761 25.3541C17.9253 24.9389 17.2045 24.2972 16.6927 23.5076C16.1674 22.6971 15.8624 21.731 15.8624 20.6921C15.8624 19.521 16.2502 18.4418 16.9045 17.574C17.8516 16.3182 19.3544 15.5079 21.0466 15.5079C23.9098 15.5079 26.2308 17.829 26.2308 20.6921C26.2308 21.4268 26.0783 22.1246 25.8036 22.7565C25.3974 23.6913 24.7231 24.4837 23.8775 25.036Z" fill="#FEEE00" stroke="#333848"/>
<path d="M18.4005 20.6504L20.2848 22.5657L23.8437 18.8191" stroke="#333848" stroke-linecap="round"/>
<path d="M11.8434 13.1132L21.0203 13.1132C25.206 13.1132 28.5993 16.5064 28.5993 20.6921V20.6921C28.5993 24.8778 25.206 28.2711 21.0203 28.2711H18.595" stroke="#333848" stroke-linecap="round"/>
<path d="M13.2955 11.2552L11.4007 13.1132L13.2955 15.3039" stroke="#333848" stroke-linecap="round"/>
<path d="M16.1816 28.271H14.1939" stroke="#333848" stroke-linecap="round"/>
</svg>
