<svg width="22" height="22" viewBox="0 0 22 22" fill="none" xmlns="http://www.w3.org/2000/svg"><path d="M14.2113 0.741972C13.3401 0.393483 12.3994 0.219238 11.4583 0.219238C10.901 0.219238 10.3433 0.289037 9.78569 0.393483L7.53809 4.26151C8.46153 3.75635 9.48942 3.51231 10.5525 3.52989C11.197 3.52989 11.8244 3.617 12.4343 3.79125L14.2113 0.741972Z" fill="#B2B8CA"/><path d="M0.708008 11.1439C0.708008 16.7197 5.44726 21.0582 10.9706 21.0582C16.7556 21.0582 21.425 16.3885 21.425 10.7085C21.425 7.38056 19.8222 4.4533 17.435 2.50171L15.6925 5.51608C17.2258 6.82292 18.1146 8.73961 18.1146 10.7607C18.1146 14.6288 14.9084 17.7998 10.9706 17.7998C7.03278 17.7998 3.84441 14.6115 3.84441 10.6736C3.84441 10.6736 3.84441 10.6736 3.84441 10.6561C3.84441 10.1858 3.87906 9.71528 3.96618 9.26209L0.708008 11.1439Z" fill="#B2B8CA"/></svg>